<svg xmlns="http://www.w3.org/2000/svg" viewBox="0 0 700 900" width="100%" height="100%" preserveAspectRatio="xMidYMid slice" role="img" aria-label="Pedro Vieira profile illustration">
  <defs>
    <linearGradient id="bg" x1="0%" y1="0%" x2="100%" y2="100%">
      <stop offset="0%" stop-color="#0a0f17"/>
      <stop offset="60%" stop-color="#111b2a"/>
      <stop offset="100%" stop-color="#0d1117"/>
    </linearGradient>
    <radialGradient id="glow" cx="50%" cy="30%" r="60%">
      <stop offset="0%" stop-color="#1b8cff" stop-opacity="0.65"/>
      <stop offset="100%" stop-color="#1b8cff" stop-opacity="0"/>
    </radialGradient>
    <linearGradient id="shirt" x1="0%" y1="0%" x2="100%" y2="100%">
      <stop offset="0%" stop-color="#1f2937"/>
      <stop offset="100%" stop-color="#0f172a"/>
    </linearGradient>
  </defs>

  <rect width="700" height="900" fill="url(#bg)"/>
  <circle cx="350" cy="270" r="220" fill="url(#glow)"/>

  <g>
    <path d="M225 730c18-88 74-156 125-156s107 68 125 156v70H225v-70Z" fill="url(#shirt)"/>
    <path d="M290 285c0-63 34-115 83-115s83 52 83 115v22c0 66-38 122-83 122s-83-56-83-122v-22Z" fill="#d9e3f0"/>
    <path d="M302 265c12-44 42-70 80-70 42 0 72 29 83 72l-24 20c-13-23-28-34-58-34-29 0-49 12-61 35l-20-23Z" fill="#0b0f17"/>
    <path d="M360 286c-15 0-27 12-27 27v58c0 15 12 27 27 27s27-12 27-27v-58c0-15-12-27-27-27Zm-39 93h74v22c0 10-8 18-18 18h-38c-10 0-18-8-18-18v-22Z" fill="#1f2a3a"/>
    <circle cx="350" cy="338" r="125" fill="#dfe9f7" opacity="0.96"/>
    <path d="M292 336c18-48 58-74 108-74 54 0 95 27 113 79l-24 30c-18-28-42-42-88-42-46 0-74 14-92 42l-17-35Z" fill="#0d1b2a"/>
    <circle cx="350" cy="371" r="88" fill="#eef4ff"/>
    <path d="M309 364c14-36 42-55 82-55 38 0 66 17 82 54l-22 18c-15-20-35-29-61-29-24 0-41 8-57 29l-24-17Z" fill="#0d1b2a"/>
    <circle cx="324" cy="375" r="10" fill="#0d1b2a"/>
    <circle cx="376" cy="375" r="10" fill="#0d1b2a"/>
    <path d="M325 409c20 18 31 18 49 0" fill="none" stroke="#0d1b2a" stroke-width="7" stroke-linecap="round"/>
    <path d="M260 690c44-65 83-95 90-95 8 0 46 30 90 95" fill="none" stroke="#1f2937" stroke-width="18" stroke-linecap="round"/>
  </g>
</svg>
